<svg width="24" height="24" viewBox="0 0 24 24" xmlns="http://www.w3.org/2000/svg"><g fill="none" fill-rule="evenodd"><path d="M0 0h24v24H0z"></path><path d="M16.514 22.418c-.99 0-1.981-.225-2.974-.674-.993-.45-1.925-1.097-2.798-1.943l-5.44-5.254c-.448-.443-.673-.938-.673-1.485 0-.39.117-.751.351-1.083.235-.333.531-.564.89-.694l-.294-.293c-.358-.358-.537-.775-.537-1.25 0-.403.12-.765.361-1.084.241-.319.55-.534.928-.644l-.205-.205a1.687 1.687 0 0 1-.508-1.24c0-.502.178-.938.532-1.31a1.712 1.712 0 0 1 1.285-.556c.488 0 .908.176 1.26.527l.253.254c.117-.384.347-.688.689-.913a1.996 1.996 0 0 1 1.118-.337c.228 0 .448.038.66.113.21.075.398.197.56.366l4.503 4.502a10.958 10.958 0 0 1-.079-.576 4.953 4.953 0 0 1-.029-.528c0-.52.103-1 .308-1.44.205-.44.486-.793.845-1.06.358-.267.768-.4 1.23-.4.436 0 .798.143 1.084.43.286.286.43.631.43 1.035 0 .234-.03.447-.088.64a2.15 2.15 0 0 0-.088.63c0 .449.114 1.015.342 1.699.228.683.582 1.582 1.064 2.695l.283.654c.209.488.367.954.474 1.397.107.442.161.885.161 1.328 0 .976-.143 1.873-.43 2.69a6.403 6.403 0 0 1-1.215 2.124 5.478 5.478 0 0 1-1.866 1.392c-.719.329-1.515.493-2.387.493zM4.883 19.166a3.223 3.223 0 0 1-1.71-.86 3.385 3.385 0 0 1-.976-1.67l.948-.234c.117.47.348.866.693 1.192.345.325.749.53 1.21.615l-.165.957zm.957-1.7a2.386 2.386 0 0 1-1.245-.63 2.38 2.38 0 0 1-.699-1.205l.958-.225c.065.28.203.52.415.718.211.199.457.324.737.376l-.166.967zm10.703 3.878c.703 0 1.343-.135 1.919-.406a4.26 4.26 0 0 0 1.484-1.152c.414-.498.733-1.09.957-1.777.225-.687.337-1.45.337-2.29 0-.404-.039-.786-.117-1.148a5.716 5.716 0 0 0-.352-1.079l-.283-.654c-.514-1.198-.897-2.178-1.147-2.94-.25-.761-.376-1.412-.376-1.953 0-.208.028-.434.083-.678.055-.245.083-.415.083-.513a.366.366 0 0 0-.132-.283.474.474 0 0 0-.327-.117.934.934 0 0 0-.635.229c-.176.153-.31.353-.405.6a2.227 2.227 0 0 0-.142.801c0 .124.005.256.015.396.01.14.03.327.063.561l.264 1.846c-.658 1.01-.986 1.992-.986 2.95 0 .481.086.95.258 1.406.173.455.429.888.767 1.298l-.86.723c-.865-1.022-1.298-2.165-1.298-3.428 0-.97.26-1.94.781-2.91L11.24 5.572a.772.772 0 0 0-.566-.234.8.8 0 0 0-.542.21.667.667 0 0 0-.24.522c0 .241.085.446.254.616l4.2 4.199-.733.722-5.586-5.586a.784.784 0 0 0-.566-.253c-.202 0-.38.08-.537.239a.777.777 0 0 0-.235.561c0 .228.079.42.235.577L12.5 12.73l-.723.723-4.345-4.336a.432.432 0 0 0-.23-.137 1.19 1.19 0 0 0-.259-.029.772.772 0 0 0-.566.235.772.772 0 0 0-.234.566c0 .215.078.407.234.576l4.258 4.268-.723.722-2.91-2.9a.648.648 0 0 0-.479-.186.788.788 0 0 0-.546.225.695.695 0 0 0-.245.527c0 .274.147.554.44.84L11.523 19c.788.755 1.613 1.335 2.476 1.738.863.404 1.71.606 2.544.606zM14.648 5.61a1.38 1.38 0 0 0-.532-.64c-.244-.159-.51-.239-.796-.239v-.976c.482 0 .926.133 1.333.4.407.267.705.622.894 1.065l-.899.39zm1.407-1.279a2.394 2.394 0 0 0-.884-1.055 2.314 2.314 0 0 0-1.304-.39V1.91c.664 0 1.276.184 1.836.552.56.368.977.86 1.25 1.48l-.898.39z" fill="#ffff" fill-rule="nonzero" style="--darkreader-inline-fill: #bcb7ae;" data-darkreader-inline-fill=""></path></g></svg>