<svg width="24" height="24" viewBox="0 0 24 24" xmlns="http://www.w3.org/2000/svg" fill="#ffff"><g fill="none" fill-rule="evenodd"><path d="M0 0h24v24H0z"></path><path d="m14.16 19.703-.85-1.289a.699.699 0 0 0-.239-.225 3.099 3.099 0 0 0-.454-.224 1.645 1.645 0 0 1-.576-.43c-.182-.202-.273-.508-.273-.918V3.092c0-.339.14-.62.42-.845.28-.224.592-.337.937-.337.332 0 .632.103.898.308.267.205.424.473.47.805l.986 6.66c.195.613.374 1.254.537 1.924.162.671.315 1.41.459 2.217.188.124.376.244.561.362l.571.36-.507.938c-.3-.175-.588-.356-.865-.542a26.84 26.84 0 0 1-.805-.561 34.242 34.242 0 0 0-.474-2.393c-.172-.722-.37-1.419-.59-2.09l-.938-6.738a.336.336 0 0 0-.093-.205c-.049-.045-.119-.068-.21-.068a.315.315 0 0 0-.205.063c-.052.043-.078.09-.078.142v13.525c0 .124.026.209.078.254.052.046.185.11.4.195.222.085.39.166.508.245.117.078.215.175.293.293l.85 1.279-.81.82zm-5.283 2.715-.674-.898 1.836-1.358a18.02 18.02 0 0 1-1.533-1.62 9.696 9.696 0 0 1-1.065-1.573 10.743 10.743 0 0 1-.732-1.719l-3.77 1.7-.498-1.007 5.01-2.255.772.712-.508.293c.17.547.37 1.055.605 1.524.235.469.524.926.87 1.372.344.446.764.913 1.26 1.401l.331-.566c.183.189.373.457.572.806.198.348.356.688.473 1.02l-2.95 2.168zm1.572-2.715-.81-.82.85-1.28c.077-.117.175-.216.292-.297.117-.082.287-.161.508-.24.215-.078.348-.141.4-.19.053-.049.079-.135.079-.259V3.092c0-.052-.025-.1-.074-.142a.311.311 0 0 0-.21-.063.3.3 0 0 0-.205.068.322.322 0 0 0-.097.205l-.938 6.738c-.221.671-.417 1.368-.586 2.09-.17.723-.329 1.52-.478 2.393-.26.189-.528.376-.801.561a13.71 13.71 0 0 1-.87.542l-.507-.937c.195-.124.387-.244.576-.361.189-.118.374-.238.557-.362.15-.807.304-1.546.464-2.217.16-.67.337-1.311.532-1.923l.986-6.66c.052-.333.21-.601.474-.806.263-.205.561-.308.893-.308.345 0 .658.113.938.337.28.225.42.506.42.845v13.525c0 .41-.091.716-.274.918a1.645 1.645 0 0 1-.576.43 2.86 2.86 0 0 0-.449.224.827.827 0 0 0-.244.225l-.85 1.29zm5.283 2.715-2.949-2.168c.117-.332.275-.672.474-1.02.198-.349.389-.617.571-.806l.332.566c.501-.488.923-.955 1.265-1.401.342-.446.631-.903.869-1.372.238-.469.438-.977.6-1.524l-.507-.293.771-.712 5.01 2.255-.498 1.006-3.77-1.699a9.912 9.912 0 0 1-.727 1.719c-.29.534-.645 1.058-1.065 1.572-.42.514-.932 1.055-1.538 1.621l1.836 1.358-.674.898zM11.768 7.193a.624.624 0 0 0-.157-.43.49.49 0 0 0-.38-.175.592.592 0 0 0-.396.156.606.606 0 0 0-.21.4l-.967-.117c.052-.403.23-.74.532-1.01.303-.27.65-.406 1.04-.406.196 0 .39.038.582.113.192.075.356.177.493.307a1.49 1.49 0 0 1 .493-.307c.192-.075.386-.113.58-.113.392 0 .738.135 1.04.406.304.27.481.607.533 1.01l-.967.118a.606.606 0 0 0-.21-.4.592.592 0 0 0-.395-.157.496.496 0 0 0-.376.176.613.613 0 0 0-.161.43h-1.074zm0-2.207a.468.468 0 0 0-.113-.322.357.357 0 0 0-.278-.127.45.45 0 0 0-.288.117.438.438 0 0 0-.161.303L9.96 4.84c.039-.365.195-.67.469-.913a1.38 1.38 0 0 1 .947-.366c.365 0 .674.11.928.332.254-.222.563-.332.927-.332.358 0 .674.122.948.366.273.244.43.548.468.913l-.966.117a.438.438 0 0 0-.161-.303.45.45 0 0 0-.289-.117.361.361 0 0 0-.273.127.457.457 0 0 0-.117.322h-1.074z" fill="#ffff" fill-rule="nonzero" style="--darkreader-inline-fill: #bcb7ae;" data-darkreader-inline-fill=""></path></g></svg>