<svg width="24" height="24" viewBox="0 0 24 24" xmlns="http://www.w3.org/2000/svg" transform="rotate(180deg)"><path d="M17 4a2 2 0 0 1 2 2v12a2 2 0 0 1-2 2H7a2 2 0 0 1-2-2V6a2 2 0 0 1 2-2h10zm0 1H7a1 1 0 0 0-.993.883L6 6v12a1 1 0 0 0 .883.993L7 19h10a1 1 0 0 0 .993-.883L18 18V6a1 1 0 0 0-.883-.993L17 5zm-1.5 9a.5.5 0 1 1 0 1h-3a.5.5 0 1 1 0-1h3zm0-3a.5.5 0 1 1 0 1h-7a.5.5 0 1 1 0-1h7zm0-3a.5.5 0 1 1 0 1h-7a.5.5 0 0 1 0-1h7z" fill="#ffff" fill-rule="nonzero" style="--darkreader-inline-fill: #bcb6ae;" data-darkreader-inline-fill=""></path></svg>