<svg width="24" height="24" viewBox="0 0 24 24" xmlns="http://www.w3.org/2000/svg" fill="#ffff">
  <g fill="none" fill-rule="evenodd">
    <path d="M0 0h24v24H0z"></path>
    <path d="M5 4a1 1 0 0 1 1 1v14a1 1 0 0 1-1 1H4a1 1 0 0 1-1-1V5a1 1 0 0 1 1-1h1zm10.53 2.47a.75.75 0 0 1 .073.976l-.073.084-3.72 3.72H22a.75.75 0 0 1 .102 1.493L22 12.75H11.812l3.718 3.72a.75.75 0 0 1 .073.976l-.073.084a.75.75 0 0 1-.976.073l-.084-.073-5-5-.063-.072-.034-.047a.77.77 0 0 1-.09-.193.747.747 0 0 1 .187-.748l5-5a.75.75 0 0 1 1.06 0z" 
    fill="#ffff" fill-rule="nonzero" 
    style="--darkreader-inline-fill: #bcb6ae;" 
    data-darkreader-inline-fill="">
    </path>
  </g>
</svg>
